<svg width="169" height="157" viewBox="0 0 169 157" fill="none" xmlns="http://www.w3.org/2000/svg">
<g clip-path="url(#clip0_116_4)">
<ellipse cx="84.5" cy="78.5" rx="84.5" ry="78.5" fill="#8FCAF5"/>
<path d="M167 78.5C167 85.3495 163.774 92.0414 157.595 98.3099C151.408 104.587 142.357 110.332 131.014 115.199C108.335 124.932 76.8654 131 42 131C7.13458 131 -24.3352 124.932 -47.0139 115.199C-58.3567 110.332 -67.4083 104.587 -73.5953 98.3099C-79.7737 92.0414 -83 85.3495 -83 78.5C-83 71.6505 -79.7737 64.9586 -73.5953 58.6901C-67.4083 52.4129 -58.3567 46.6682 -47.0139 41.8006C-24.3352 32.0684 7.13458 26 42 26C76.8654 26 108.335 32.0684 131.014 41.8006C142.357 46.6682 151.408 52.4129 157.595 58.6901C163.774 64.9586 167 71.6505 167 78.5Z" fill="#7699B3" fill-opacity="0.73" stroke="#AEDAF9" stroke-width="4"/>
<path d="M138.5 58.5C138.5 85.3477 132.308 109.531 122.425 126.914C112.5 144.371 99.1732 154.5 85 154.5C70.8268 154.5 57.5001 144.371 47.5753 126.914C37.6921 109.531 31.5 85.3477 31.5 58.5C31.5 31.6523 37.6921 7.46942 47.5753 -9.91442C57.5001 -27.3714 70.8268 -37.5 85 -37.5C99.1732 -37.5 112.5 -27.3714 122.425 -9.91442C132.308 7.46942 138.5 31.6523 138.5 58.5Z" fill="#7699B3" fill-opacity="0.78" stroke="#AEDAF9" stroke-width="5"/>
<path d="M82.0273 47.92V94H75.4353V62.416C75.4353 61.904 75.4459 61.3493 75.4673 60.752C75.5099 60.1333 75.5633 59.5147 75.6273 58.896L60.8113 86.256C60.2353 87.3867 59.3499 87.952 58.1553 87.952H57.0993C55.8833 87.952 54.9979 87.3867 54.4433 86.256L39.4033 58.832C39.4673 59.4507 39.5099 60.0693 39.5313 60.688C39.5739 61.3067 39.5953 61.8827 39.5953 62.416V94H33.0033V47.92H38.6033C39.2646 47.92 39.7766 47.984 40.1393 48.112C40.5019 48.2187 40.8326 48.5707 41.1313 49.168L55.9153 75.952C56.2353 76.5707 56.5339 77.2107 56.8113 77.872C57.1099 78.512 57.3766 79.1733 57.6113 79.856C57.8673 79.1733 58.1339 78.5013 58.4113 77.84C58.7099 77.1573 59.0193 76.5067 59.3393 75.888L73.8993 49.168C74.1979 48.5707 74.5286 48.2187 74.8913 48.112C75.2539 47.984 75.7659 47.92 76.4273 47.92H82.0273Z" fill="black"/>
<path d="M136.027 77.92V124H129.435V92.416C129.435 91.904 129.446 91.3493 129.467 90.752C129.51 90.1333 129.563 89.5147 129.627 88.896L114.811 116.256C114.235 117.387 113.35 117.952 112.155 117.952H111.099C109.883 117.952 108.998 117.387 108.443 116.256L93.4033 88.832C93.4673 89.4507 93.5099 90.0693 93.5313 90.688C93.5739 91.3067 93.5953 91.8827 93.5953 92.416V124H87.0033V77.92H92.6033C93.2646 77.92 93.7766 77.984 94.1393 78.112C94.5019 78.2187 94.8326 78.5707 95.1313 79.168L109.915 105.952C110.235 106.571 110.534 107.211 110.811 107.872C111.11 108.512 111.377 109.173 111.611 109.856C111.867 109.173 112.134 108.501 112.411 107.84C112.71 107.157 113.019 106.507 113.339 105.888L127.899 79.168C128.198 78.5707 128.529 78.2187 128.891 78.112C129.254 77.984 129.766 77.92 130.427 77.92H136.027Z" fill="black"/>
</g>
<defs>
<clipPath id="clip0_116_4">
<rect width="169" height="157" rx="78.5" fill="white"/>
</clipPath>
</defs>
</svg>
